<?xml version="1.0" encoding="UTF-8" standalone="no"?>
<!-- Created with Inkscape (http://www.inkscape.org/) -->

<svg
   xmlns:dc="http://purl.org/dc/elements/1.1/"
   xmlns:cc="http://creativecommons.org/ns#"
   xmlns:rdf="http://www.w3.org/1999/02/22-rdf-syntax-ns#"
   xmlns:svg="http://www.w3.org/2000/svg"
   xmlns="http://www.w3.org/2000/svg"
   xmlns:sodipodi="http://sodipodi.sourceforge.net/DTD/sodipodi-0.dtd"
   xmlns:inkscape="http://www.inkscape.org/namespaces/inkscape"
   width="200mm"
   height="130mm"
   viewBox="0 0 200 130"
   version="1.1"
   id="svg8"
   inkscape:version="0.92.2 5c3e80d, 2017-08-06"
   sodipodi:docname="megan-logo.svg">
  <defs
     id="defs2">
    <filter
       inkscape:collect="always"
       style="color-interpolation-filters:sRGB"
       id="filter5097"
       x="-0.91664112"
       width="2.8332822"
       y="-0.79587525"
       height="2.5917504">
      <feGaussianBlur
         inkscape:collect="always"
         stdDeviation="11.131406"
         id="feGaussianBlur5099" />
    </filter>
  </defs>
  <sodipodi:namedview
     id="base"
     pagecolor="#ffffff"
     bordercolor="#666666"
     borderopacity="1.0"
     inkscape:pageopacity="0.0"
     inkscape:pageshadow="2"
     inkscape:zoom="1.0030434"
     inkscape:cx="327.47705"
     inkscape:cy="198.69284"
     inkscape:document-units="mm"
     inkscape:current-layer="text851"
     showgrid="false"
     inkscape:window-width="1440"
     inkscape:window-height="855"
     inkscape:window-x="1680"
     inkscape:window-y="1"
     inkscape:window-maximized="1"
     showguides="false"
     inkscape:guide-bbox="true">
    <sodipodi:guide
       position="160.06542,255.8271"
       orientation="0,1"
       id="guide4753"
       inkscape:locked="false" />
    <sodipodi:guide
       position="104.19332,232.12689"
       orientation="0,1"
       id="guide5117"
       inkscape:locked="false" />
    <sodipodi:guide
       position="50.645865,128.98869"
       orientation="0,1"
       id="guide839"
       inkscape:locked="false" />
  </sodipodi:namedview>
  <metadata
     id="metadata5">
    <rdf:RDF>
      <cc:Work
         rdf:about="">
        <dc:format>image/svg+xml</dc:format>
        <dc:type
           rdf:resource="http://purl.org/dc/dcmitype/StillImage" />
        <dc:title />
      </cc:Work>
    </rdf:RDF>
  </metadata>
  <g
     inkscape:label="Layer 1"
     inkscape:groupmode="layer"
     id="layer1"
     transform="translate(0,-167)">
    <g
       aria-label="Photography"
       style="font-style:normal;font-weight:normal;font-size:8.33774948px;line-height:1.25;font-family:sans-serif;letter-spacing:0px;word-spacing:0px;fill:#000000;fill-opacity:1;stroke:none;stroke-width:0.20844375"
       id="text851">
      <ellipse
         style="fill:#ffffff;fill-opacity:1;stroke:none;stroke-width:4.13593626;stroke-linecap:round;stroke-linejoin:miter;stroke-miterlimit:4;stroke-dasharray:none;stroke-opacity:0"
         id="path884"
         cx="100.235"
         cy="231.84302"
         rx="62.734814"
         ry="60.506664" />
      <path
         d="m 13.682304,244.2865 q -1.00053,0 -1.880996,-0.5603 -0.880467,-0.56029 -0.880467,-1.44076 0,-0.44023 0.200107,-1.08057 0.200106,-0.60032 0.36019,-1.12059 1.280679,-3.92208 2.401272,-7.32388 1.120594,-3.40181 2.241187,-6.6035 1.120594,-3.2017 2.361251,-6.40339 1.280678,-3.2017 2.841505,-6.68354 -1.520805,0.28014 -2.721441,0.84044 -1.160615,0.52028 -1.880997,0.96051 -0.720381,0.40021 -0.960508,0.40021 -0.160085,0 -0.480255,-0.16008 -0.280148,-0.20011 -0.520275,-0.44024 -0.240128,-0.28014 -0.240128,-0.48025 1.040552,-0.44023 2.441294,-0.96051 1.440763,-0.52027 3.081632,-0.88046 1.640869,-0.3602 3.321759,-0.3602 1.760933,0 3.561887,0.48026 1.840975,0.48025 3.361781,1.48078 1.520805,0.96051 2.441293,2.40127 0.920487,1.44077 0.920487,3.36179 0,2.0811 -0.920487,3.6019 -0.920488,1.48079 -2.441293,2.52134 -1.520806,1.00053 -3.281739,1.64087 -1.760932,0.60032 -3.521865,0.96051 -1.720912,0.32017 -3.081632,0.44023 -1.360721,0.08 -2.00106,0.08 h -0.400212 q -1.200636,4.12219 -2.32123,8.12431 -1.080572,4.00212 -2.00106,7.20381 z m 4.482375,-15.96846 q 2.201165,-0.12006 4.442353,-0.72038 2.281208,-0.60032 4.162204,-1.72091 1.880996,-1.16061 3.041611,-2.84151 1.160615,-1.72091 1.160615,-4.00211 0,-2.16115 -1.040551,-3.52187 -1.00053,-1.36072 -2.68142,-2.00106 -1.64087,-0.68036 -3.521866,-0.68036 -1.480784,2.92155 -2.881526,7.00371 -1.400742,4.08216 -2.68142,8.48449 z"
         style="font-style:normal;font-variant:normal;font-weight:normal;font-stretch:normal;font-size:40.02119827px;font-family:'Dancing Script';-inkscape-font-specification:'Dancing Script';stroke-width:0.20844375"
         id="path854"
         inkscape:connector-curvature="0" />
      <path
         d="m 32.128051,242.32546 q -0.760402,0 -1.200636,-1.28068 -0.440233,-1.28067 -0.440233,-2.88152 0,-1.92102 0.640339,-4.56242 0.64034,-2.6414 1.680891,-5.56295 1.040551,-2.92154 2.321229,-5.72303 1.3207,-2.80148 2.681421,-5.08269 1.36072,-2.28121 2.561356,-3.64193 1.200636,-1.36072 2.081103,-1.36072 0.720381,0 1.000529,0.88047 0.32017,0.84044 0.32017,1.64087 0,1.12059 -0.520276,2.72144 -0.480254,1.60085 -1.36072,3.44182 -0.880467,1.80096 -2.041081,3.56189 -1.160615,1.76093 -2.521336,3.24172 -1.360721,1.44076 -2.761463,2.2812 -0.480254,1.16062 -0.840445,2.60138 -0.320169,1.44076 -0.480254,2.84151 -0.160085,1.36072 -0.160085,2.44129 0,0.44023 0,0.7604 0.04002,0.32017 0.08004,0.60032 0.560296,-1.64087 1.200635,-3.16167 0.680361,-1.56083 1.440764,-2.84151 0.760402,-1.3207 1.600848,-2.28121 0.880466,-1.00053 1.840975,-1.5208 0.960508,-0.5603 2.041081,-0.5603 1.120593,0 1.760933,0.5603 0.68036,0.52027 0.960508,1.36072 0.32017,0.80042 0.32017,1.68089 0,1.24065 -0.440233,2.40127 -0.400212,1.16061 -0.840445,2.24119 -0.440234,1.08057 -0.440234,2.0811 0,0.80042 0.32017,1.16061 0.360191,0.36019 0.880466,0.36019 0.920488,0 2.041081,-0.88046 1.160615,-0.88047 2.281209,-2.32123 1.120593,-1.48079 1.921017,-3.2017 l 0.520276,0.48026 q -0.840445,1.96104 -2.041081,3.56188 -1.200636,1.56083 -2.641399,2.48132 -1.440764,0.92049 -3.00159,0.92049 -1.360721,0 -2.081103,-0.72039 -0.68036,-0.72038 -0.68036,-1.80095 0,-0.84044 0.32017,-1.881 0.320169,-1.04055 0.600318,-2.12112 0.320169,-1.08057 0.320169,-2.04108 0,-1.04055 -0.440233,-1.48079 -0.440233,-0.44023 -1.080572,-0.44023 -1.00053,0 -1.800954,0.80043 -0.800424,0.80042 -1.480785,2.0811 -0.640339,1.24066 -1.240657,2.6414 -0.560297,1.40074 -1.080572,2.68142 -0.520276,1.24065 -1.040551,2.04108 -0.520276,0.80042 -1.080573,0.80042 z m 2.961569,-13.88735 q 1.120594,-0.88047 2.161145,-2.24119 1.080572,-1.36072 2.00106,-2.88153 0.920487,-1.56082 1.640869,-3.04161 0.720381,-1.48078 1.120593,-2.68142 0.400212,-1.20063 0.400212,-1.80095 0,-0.20011 -0.04002,-0.24013 -0.04002,-0.08 -0.120063,-0.08 -0.280149,0 -1.160615,1.12059 -0.840445,1.08057 -1.961039,2.92155 -1.120593,1.84097 -2.201166,4.1622 -1.080572,2.32123 -1.840975,4.76253 z"
         style="font-style:normal;font-variant:normal;font-weight:normal;font-stretch:normal;font-size:40.02119827px;font-family:'Dancing Script';-inkscape-font-specification:'Dancing Script';stroke-width:0.20844375"
         id="path856" />
      <path
         d="m 52.081121,242.08534 q -1.720912,0 -2.441293,-1.08058 -0.720382,-1.04055 -0.720382,-2.56135 0,-1.24066 0.400212,-2.56136 0.400212,-1.3207 1.040551,-2.48131 0.680361,-1.16062 1.480785,-1.881 0.840445,-0.72038 1.68089,-0.72038 0.200106,0 0.400212,0.08 0.240127,0.04 0.440233,0.12006 -0.360191,0.32017 -0.880466,1.20064 -0.480254,0.84044 -0.920488,1.96104 -0.440233,1.08057 -0.760402,2.16114 -0.280149,1.08058 -0.280149,1.84098 0,1.20063 0.400212,1.76093 0.400212,0.52028 1.040551,0.52028 0.840445,0 2.00106,-0.88047 1.160615,-0.92049 2.281209,-2.32123 -1.120594,-0.92049 -1.760933,-2.40127 -0.600318,-1.52081 -0.600318,-3.08163 0,-1.3207 0.440233,-2.48132 0.480254,-1.16061 1.360721,-1.84097 0.880466,-0.72038 2.121123,-0.72038 1.640869,0 2.201166,0.88046 0.560297,0.88047 0.560297,2.20117 0,1.56082 -0.760403,3.48184 -0.760403,1.881 -1.921017,3.64193 0.720381,0.40021 1.520805,0.40021 0.640339,0 1.440763,-0.24012 0.800424,-0.28015 1.560827,-0.92049 0.800424,-0.64034 1.280678,-1.72091 l 0.480255,0.40021 q -0.800424,1.88099 -2.281209,2.68142 -1.440763,0.7604 -2.761462,0.7604 -0.520276,0 -1.00053,-0.08 -0.480255,-0.12006 -0.920488,-0.32017 -1.36072,1.80095 -3.00159,3.00159 -1.600848,1.20064 -3.121653,1.20064 z m 5.883116,-5.88312 q 1.00053,-1.48079 1.640869,-3.08163 0.680361,-1.64087 0.680361,-3.08164 0,-1.16061 -0.360191,-1.68089 -0.32017,-0.56029 -0.840445,-0.56029 -0.800424,0 -1.640869,1.16061 -0.840446,1.16062 -0.840446,2.92155 0,1.16061 0.32017,2.36125 0.360191,1.16062 1.040551,1.96104 z"
         style="font-style:normal;font-variant:normal;font-weight:normal;font-stretch:normal;font-size:40.02119827px;font-family:'Dancing Script';-inkscape-font-specification:'Dancing Script';stroke-width:0.20844375"
         id="path858" />
      <path
         d="m 67.338575,242.64563 q -1.720911,0 -2.641399,-1.00053 -0.920487,-1.00053 -0.920487,-2.96157 0,-1.76093 0.640339,-4.32229 0.68036,-2.60137 1.68089,-5.32282 -0.400212,-0.08 -0.760403,-0.12006 -0.360191,-0.08 -0.68036,-0.2001 v -0.72039 q 0.320169,0.04 0.760403,0.08 0.440233,0.04 1.00053,0.08 0.840445,-2.16115 1.800954,-4.16221 0.960508,-2.04108 1.880996,-3.6019 0.960509,-1.60085 1.800954,-2.52134 0.880466,-0.96051 1.480784,-0.96051 0.32017,0 0.560297,0.24013 0.280148,0.2001 0.280148,0.64034 0,0.68036 -0.840445,2.24119 -0.840445,1.5208 -2.081102,3.64192 -1.240657,2.12113 -2.401272,4.60244 0.360191,0 0.720381,0 0.400212,0 0.760403,0 1.3207,0 2.761463,-0.04 1.480784,-0.04 2.961569,-0.20011 v 0.72039 q -2.201166,0.24012 -3.962099,0.36019 -1.720912,0.12006 -3.081632,0.12006 -0.160085,0 -0.32017,0 -0.120064,0 -0.280148,0 -0.920488,2.12112 -1.560827,4.36231 -0.640339,2.24119 -0.640339,4.36231 0,1.72091 0.520275,2.48132 0.520276,0.72038 1.720912,0.72038 2.081102,0 4.082162,-1.84098 2.00106,-1.84097 3.521866,-5.00265 l 0.520275,0.40021 q -0.960509,2.24119 -2.441293,4.04215 -1.440763,1.80095 -3.201696,2.8415 -1.760933,1.04055 -3.641929,1.04055 z"
         style="font-style:normal;font-variant:normal;font-weight:normal;font-stretch:normal;font-size:40.02119827px;font-family:'Dancing Script';-inkscape-font-specification:'Dancing Script';stroke-width:0.20844375"
         id="path860" />
      <path
         d="m 78.110528,242.08534 q -1.720911,0 -2.441293,-1.08058 -0.720381,-1.04055 -0.720381,-2.56135 0,-1.24066 0.400212,-2.56136 0.400212,-1.3207 1.040551,-2.48131 0.68036,-1.16062 1.480784,-1.881 0.840445,-0.72038 1.680891,-0.72038 0.200106,0 0.400212,0.08 0.240127,0.04 0.440233,0.12006 -0.360191,0.32017 -0.880467,1.20064 -0.480254,0.84044 -0.920487,1.96104 -0.440233,1.08057 -0.760403,2.16114 -0.280148,1.08058 -0.280148,1.84098 0,1.20063 0.400212,1.76093 0.400212,0.52028 1.040551,0.52028 0.840445,0 2.00106,-0.88047 1.160614,-0.92049 2.281208,-2.32123 -1.120594,-0.92049 -1.760933,-2.40127 -0.600318,-1.52081 -0.600318,-3.08163 0,-1.3207 0.440234,-2.48132 0.480254,-1.16061 1.36072,-1.84097 0.880467,-0.72038 2.121124,-0.72038 1.640869,0 2.201166,0.88046 0.560296,0.88047 0.560296,2.20117 0,1.56082 -0.760402,3.48184 -0.760403,1.881 -1.921018,3.64193 0.720382,0.40021 1.520806,0.40021 0.640339,0 1.440763,-0.24012 0.800424,-0.28015 1.560827,-0.92049 0.800424,-0.64034 1.280678,-1.72091 l 0.480254,0.40021 q -0.800424,1.88099 -2.281208,2.68142 -1.440763,0.7604 -2.761463,0.7604 -0.520275,0 -1.00053,-0.08 -0.480254,-0.12006 -0.920487,-0.32017 -1.360721,1.80095 -3.00159,3.00159 -1.600848,1.20064 -3.121654,1.20064 z m 5.883117,-5.88312 q 1.00053,-1.48079 1.640869,-3.08163 0.68036,-1.64087 0.68036,-3.08164 0,-1.16061 -0.360191,-1.68089 -0.320169,-0.56029 -0.840445,-0.56029 -0.800424,0 -1.640869,1.16061 -0.840445,1.16062 -0.840445,2.92155 0,1.16061 0.320169,2.36125 0.360191,1.16062 1.040552,1.96104 z"
         style="font-style:normal;font-variant:normal;font-weight:normal;font-stretch:normal;font-size:40.02119827px;font-family:'Dancing Script';-inkscape-font-specification:'Dancing Script';stroke-width:0.20844375"
         id="path862" />
      <path
         d="m 91.48699,252.01059 q -0.880466,0 -1.600848,-0.56029 -0.720381,-0.52028 -0.720381,-1.76094 0,-1.20063 0.760402,-2.24118 0.720382,-1.00053 1.880997,-1.881 1.160614,-0.84045 2.521335,-1.56083 1.400742,-0.72038 2.641399,-1.36072 0.560297,-1.40074 1.040551,-3.00159 0.520276,-1.64087 1.00053,-3.60191 -1.520805,2.20117 -3.201695,3.68195 -1.64087,1.44077 -3.32176,1.44077 -1.440763,0 -2.241187,-1.08057 -0.760403,-1.08058 -0.760403,-2.80149 0,-2.0811 1.00053,-3.9621 1.040551,-1.88099 2.68142,-3.32176 1.64087,-1.44076 3.481845,-2.24118 1.840975,-0.84045 3.441825,-0.84045 1.16061,0 1.64087,0.40021 0.52027,0.36019 0.52027,0.88047 0,0.36019 -0.2001,0.5603 -0.20011,0.2001 -0.28015,0.24012 -0.20011,-0.32017 -0.60032,-0.44023 -0.40021,-0.16008 -1.00053,-0.16008 -1.560827,0 -3.041611,0.92048 -1.440763,0.92049 -2.561357,2.36125 -1.120593,1.44077 -1.800954,3.00159 -0.640339,1.52081 -0.640339,2.80149 0,0.96051 0.360191,1.48078 0.400212,0.48026 1.040551,0.48026 1.160615,0 2.761463,-1.52081 1.640869,-1.56083 3.161675,-3.76199 0.120063,-0.5603 0.200106,-1.00053 0.120063,-0.44024 0.280148,-1.1206 0.120067,-0.56029 0.560297,-1.28067 0.48025,-0.76041 1.48078,-0.76041 0.20011,0 0.40022,0.04 0.2001,0 0.44023,0.08 0,0.64034 -0.40021,2.36125 -0.36019,1.68089 -1.08058,3.9621 -0.68036,2.24118 -1.600843,4.64246 1.320703,-0.64034 2.561353,-1.64087 1.28068,-1.00053 2.32123,-2.28121 1.04055,-1.3207 1.64087,-2.84151 l 0.52028,0.40021 q -0.60032,1.80096 -1.92102,3.28174 -1.3207,1.48079 -2.8415,2.56136 -1.48079,1.08057 -2.721446,1.68089 -1.120594,2.68142 -2.361251,4.88259 -1.240657,2.24118 -2.601378,3.56188 -1.320699,1.3207 -2.841505,1.3207 z m -0.120063,-1.28068 q 0.800424,0 2.161144,-1.60084 1.400742,-1.56083 3.00159,-5.40287 -1.600848,0.80043 -3.00159,1.64087 -1.36072,0.88047 -2.241187,1.84098 -0.880466,0.96051 -0.880466,2.12112 0,0.64034 0.280148,1.00053 0.280149,0.40021 0.680361,0.40021 z"
         style="font-style:normal;font-variant:normal;font-weight:normal;font-stretch:normal;font-size:40.02119827px;font-family:'Dancing Script';-inkscape-font-specification:'Dancing Script';stroke-width:0.20844375"
         id="path864" />
      <path
         d="m 112.44497,241.84521 q -1.36072,0 -2.16115,-0.72038 -0.7604,-0.72039 -0.7604,-1.881 0,-1.20064 0.5603,-2.52134 0.56029,-1.32069 1.08057,-2.60137 0.5603,-1.3207 0.5603,-2.36125 0,-1.28068 -0.76041,-1.881 -0.72038,-0.64034 -1.48078,-1.16061 -0.92049,2.36125 -1.92102,4.48237 -1.00053,2.12112 -1.64087,3.2017 l -0.36019,-0.68037 q 0.5603,-1.04055 1.44076,-3.04161 0.92049,-2.00106 1.80096,-4.56241 -0.40021,-0.40021 -0.40021,-0.96051 0,-1.20064 0.68036,-1.96104 0.68036,-0.7604 1.00053,-0.7604 0.44023,0 0.48025,0.40021 0.08,0.36019 0.08,0.5603 0,0.2001 -0.24012,0.80042 -0.20011,0.5603 -0.20011,0.68036 0,0.5603 0.60032,1.04055 0.64034,0.44023 1.44076,1.04055 0.80042,0.5603 1.40074,1.40074 0.64034,0.80043 0.64034,2.08111 0,1.20063 -0.52027,2.44129 -0.48026,1.24066 -1.00053,2.36125 -0.48026,1.12059 -0.48026,1.96104 0,0.72038 0.36019,0.96051 0.36019,0.24012 0.84045,0.24012 0.96051,0 1.96104,-0.60031 1.04055,-0.60032 2.00106,-1.52081 0.96051,-0.92049 1.72091,-1.92102 0.7604,-1.04055 1.12059,-1.92101 l 0.52028,0.40021 q -0.76041,1.68089 -2.08111,3.32176 -1.32069,1.60085 -2.96156,2.6414 -1.60085,1.04055 -3.32176,1.04055 z"
         style="font-style:normal;font-variant:normal;font-weight:normal;font-stretch:normal;font-size:40.02119827px;font-family:'Dancing Script';-inkscape-font-specification:'Dancing Script';stroke-width:0.20844375"
         id="path866" />
      <path
         d="m 121.35594,242.68565 q -1.24066,0 -2.08111,-0.84044 -0.88046,-0.80043 -0.88046,-2.48132 0,-1.44076 0.64034,-3.08163 0.64034,-1.68089 1.76093,-3.28174 1.12059,-1.64087 2.52134,-2.96157 1.44076,-1.36072 3.00159,-2.16114 1.60084,-0.80042 3.16167,-0.80042 1.56083,0 2.60138,0.84044 1.04055,0.80043 1.04055,2.16115 0,1.00053 -0.5603,1.36072 -0.52027,0.36019 -1.40074,0.36019 0.08,-0.32017 0.12006,-0.68036 0.08,-0.40021 0.08,-0.72038 0,-0.92049 -0.44024,-1.56083 -0.44023,-0.68036 -1.5208,-0.68036 -1.1206,0 -2.28121,0.80042 -1.16062,0.76041 -2.24119,2.0811 -1.08057,1.28068 -1.92102,2.80149 -0.84044,1.5208 -1.32069,3.00159 -0.48026,1.48078 -0.48026,2.6414 0,1.56082 1.08057,1.56082 0.92049,0 2.00106,-0.84044 1.08058,-0.88047 2.20117,-2.20117 1.16061,-1.36072 2.20116,-2.80148 1.04056,-1.44076 1.84098,-2.6414 0.16008,-0.24013 0.20011,-0.24013 0.24012,0.04 0.60031,0.16009 0.40022,0.12006 0.68036,0.32017 0.28015,0.2001 0.28015,0.52027 0,0.36019 -0.36019,1.00053 -0.36019,0.60032 -0.80042,1.40074 -0.44024,0.80043 -0.80043,1.64087 -0.36019,0.80043 -0.36019,1.52081 0,0.60032 0.32017,1.20064 0.32017,0.56029 1.04055,0.56029 1.08058,0 2.84151,-1.56082 1.76093,-1.60085 3.56189,-4.76253 l 0.40021,0.40021 q -0.84045,2.16115 -2.16115,3.80202 -1.3207,1.64087 -2.8415,2.56136 -1.48079,0.92048 -2.92155,0.92048 -1.48078,0 -2.20117,-0.88046 -0.68036,-0.88047 -0.68036,-1.92102 0,-0.24013 0.04,-0.52028 0.04,-0.32017 0.08,-0.64034 -1.72091,2.32123 -3.16168,3.48185 -1.40074,1.16061 -2.88152,1.16061 z"
         style="font-style:normal;font-variant:normal;font-weight:normal;font-stretch:normal;font-size:40.02119827px;font-family:'Dancing Script';-inkscape-font-specification:'Dancing Script';stroke-width:0.20844375"
         id="path868" />
      <path
         d="m 134.34469,252.01059 q -0.32017,0 -0.60032,-0.36019 -0.32017,-0.32017 -0.48025,-0.72038 -0.16009,-0.36019 -0.16009,-0.44023 0.5603,-1.96104 1.1206,-3.52187 0.52027,-1.5208 1.08057,-3.16167 0.52027,-1.60085 1.04055,-3.762 0.52028,-2.20116 1.08057,-5.44288 0.5603,-3.24172 1.1206,-8.04426 0.04,-0.36019 0.16008,-0.52028 0.12006,-0.16008 0.60032,-0.16008 1.04055,0 1.48078,0.60032 0.44024,0.56029 0.44024,1.24066 0,0.56029 -0.24013,2.00106 -0.24013,1.44076 -0.68036,3.4018 0.68036,-1.3207 1.68089,-2.68142 1.04055,-1.36072 2.36125,-2.28121 1.3207,-0.92049 2.88153,-0.92049 1.76093,0 2.88152,1.28068 1.16062,1.24066 1.16062,3.28174 0,1.56082 -0.72038,3.32176 -0.68036,1.72091 -1.96104,3.28174 -1.24066,1.5208 -2.96157,2.48131 -1.72091,0.96051 -3.80202,0.96051 -1.04055,0 -1.68089,-0.24013 -0.64033,-0.24013 -0.64033,-0.48025 0,-0.16009 0.28014,-0.20011 0.32017,0 0.72038,0 1.60085,0 3.04162,-0.7604 1.48078,-0.80043 2.6414,-2.0811 1.16061,-1.28068 1.80095,-2.84151 0.68036,-1.56083 0.68036,-3.08163 0,-1.28068 -0.5603,-2.16115 -0.52027,-0.92048 -1.72091,-0.92048 -1.04055,0 -2.0811,0.68036 -1.00053,0.64034 -1.92102,1.68089 -0.88047,1.00053 -1.60085,2.12112 -0.68036,1.08057 -1.04055,1.96104 -0.72038,3.00159 -1.44076,5.76305 -0.72038,2.80149 -1.40074,5.04267 -0.64034,2.28121 -1.16062,3.72197 -0.56029,1.44077 -0.92049,1.76094 -0.2001,0.2001 -0.48025,0.2001 z"
         style="font-style:normal;font-variant:normal;font-weight:normal;font-stretch:normal;font-size:40.02119827px;font-family:'Dancing Script';-inkscape-font-specification:'Dancing Script';stroke-width:0.20844375"
         id="path870" />
      <path
         d="m 155.43864,242.32546 q -0.7604,0 -1.20064,-1.28068 -0.44023,-1.28067 -0.44023,-2.88152 0,-1.92102 0.64034,-4.56242 0.64034,-2.6414 1.68089,-5.56295 1.04055,-2.92154 2.32123,-5.72303 1.3207,-2.80148 2.68142,-5.08269 1.36072,-2.28121 2.56136,-3.64193 1.20063,-1.36072 2.0811,-1.36072 0.72038,0 1.00053,0.88047 0.32017,0.84044 0.32017,1.64087 0,1.12059 -0.52028,2.72144 -0.48025,1.60085 -1.36072,3.44182 -0.88046,1.80096 -2.04108,3.56189 -1.16061,1.76093 -2.52133,3.24172 -1.36072,1.44076 -2.76147,2.2812 -0.48025,1.16062 -0.84044,2.60138 -0.32017,1.44076 -0.48026,2.84151 -0.16008,1.36072 -0.16008,2.44129 0,0.44023 0,0.7604 0.04,0.32017 0.08,0.60032 0.5603,-1.64087 1.20064,-3.16167 0.68036,-1.56083 1.44076,-2.84151 0.7604,-1.3207 1.60085,-2.28121 0.88046,-1.00053 1.84097,-1.5208 0.96051,-0.5603 2.04108,-0.5603 1.1206,0 1.76094,0.5603 0.68036,0.52027 0.96051,1.36072 0.32017,0.80042 0.32017,1.68089 0,1.24065 -0.44024,2.40127 -0.40021,1.16061 -0.84044,2.24119 -0.44024,1.08057 -0.44024,2.0811 0,0.80042 0.32017,1.16061 0.36019,0.36019 0.88047,0.36019 0.92049,0 2.04108,-0.88046 1.16062,-0.88047 2.28121,-2.32123 1.12059,-1.48079 1.92102,-3.2017 l 0.52027,0.48026 q -0.84044,1.96104 -2.04108,3.56188 -1.20063,1.56083 -2.6414,2.48132 -1.44076,0.92049 -3.00159,0.92049 -1.36072,0 -2.0811,-0.72039 -0.68036,-0.72038 -0.68036,-1.80095 0,-0.84044 0.32017,-1.881 0.32017,-1.04055 0.60032,-2.12112 0.32017,-1.08057 0.32017,-2.04108 0,-1.04055 -0.44024,-1.48079 -0.44023,-0.44023 -1.08057,-0.44023 -1.00053,0 -1.80095,0.80043 -0.80043,0.80042 -1.48079,2.0811 -0.64034,1.24066 -1.24065,2.6414 -0.5603,1.40074 -1.08058,2.68142 -0.52027,1.24065 -1.04055,2.04108 -0.52027,0.80042 -1.08057,0.80042 z m 2.96157,-13.88735 q 1.12059,-0.88047 2.16114,-2.24119 1.08058,-1.36072 2.00106,-2.88153 0.92049,-1.56082 1.64087,-3.04161 0.72038,-1.48078 1.1206,-2.68142 0.40021,-1.20063 0.40021,-1.80095 0,-0.20011 -0.04,-0.24013 -0.04,-0.08 -0.12007,-0.08 -0.28015,0 -1.16061,1.12059 -0.84045,1.08057 -1.96104,2.92155 -1.12059,1.84097 -2.20117,4.1622 -1.08057,2.32123 -1.84097,4.76253 z"
         style="font-style:normal;font-variant:normal;font-weight:normal;font-stretch:normal;font-size:40.02119827px;font-family:'Dancing Script';-inkscape-font-specification:'Dancing Script';stroke-width:0.20844375"
         id="path872"
         inkscape:connector-curvature="0" />
      <path
         d="m 174.35116,252.01059 q -1.00053,0 -1.76094,-0.56029 -0.7604,-0.52028 -0.7604,-1.56083 0,-1.28068 0.64034,-2.28121 0.64034,-1.00053 1.72091,-1.84097 1.08057,-0.84045 2.48132,-1.60085 1.40074,-0.76041 2.92154,-1.52081 0.5603,-1.48078 1.1206,-3.28174 0.60032,-1.84097 1.12059,-4.04214 -1.28068,2.08111 -2.76146,3.60191 -1.44077,1.48078 -3.08163,1.48078 -0.76041,0 -1.52081,-0.32016 -0.72038,-0.3602 -1.20064,-1.08058 -0.48025,-0.72038 -0.48025,-1.84097 0,-1.1206 0.36019,-2.60138 0.40021,-1.48078 0.96051,-2.88153 0.5603,-1.40074 1.16061,-2.32123 0.60032,-0.92048 1.04056,-0.92048 0.16008,0 0.56029,0.12006 0.44024,0.12006 0.80043,0.36019 0.40021,0.20011 0.40021,0.44023 -0.36019,0.52028 -0.80043,1.48079 -0.44023,0.96051 -0.88046,2.16114 -0.40021,1.16062 -0.68036,2.28121 -0.28015,1.1206 -0.28015,1.92102 0,0.72038 0.32017,1.16061 0.32017,0.44024 1.12059,0.44024 0.7604,0 1.68089,-0.72038 0.96051,-0.76041 1.881,-1.92102 0.96051,-1.16062 1.76093,-2.48132 0.12007,-0.44023 0.20011,-0.88046 0.12006,-0.48026 0.2001,-0.96051 0.12007,-0.5603 0.5603,-1.28068 0.48025,-0.7604 1.48078,-0.7604 0.20011,0 0.40022,0.04 0.2001,0 0.44023,0.08 0,0.64034 -0.40021,2.40127 -0.36019,1.72091 -1.08057,4.04214 -0.68036,2.32123 -1.64087,4.76253 1.88099,-0.72039 3.68195,-2.36125 1.80095,-1.68089 2.92154,-4.44236 l 0.52028,0.40021 q -0.60032,1.92102 -1.84098,3.36179 -1.20063,1.40074 -2.72144,2.44129 -1.5208,1.00053 -3.00159,1.68089 -1.04055,2.56136 -2.28121,4.80254 -1.20063,2.24119 -2.56135,3.60191 -1.3207,1.40074 -2.72144,1.40074 z m -0.20011,-1.28068 q 0.60032,0 2.00106,-1.60084 1.44076,-1.56083 3.04161,-5.52293 -1.64087,0.88047 -3.04161,1.72091 -1.40074,0.88047 -2.24119,1.881 -0.84044,1.00053 -0.84044,2.32123 0,0.32017 0.24013,0.7604 0.24012,0.44023 0.84044,0.44023 z"
         style="font-style:normal;font-variant:normal;font-weight:normal;font-stretch:normal;font-size:40.02119827px;font-family:'Dancing Script';-inkscape-font-specification:'Dancing Script';stroke-width:0.20844375"
         id="path875"
         inkscape:connector-curvature="0" />
    </g>
    <circle
       style="fill:none;stroke:none;stroke-width:0.35277778;stroke-linecap:round;stroke-linejoin:round;stroke-miterlimit:4;stroke-dasharray:none;stroke-opacity:1"
       id="path885"
       cx="-248.18793"
       cy="-41.880341"
       r="54.768749"
       transform="rotate(-122.3816)" />
    <circle
       transform="matrix(-0.68942821,0.72435402,0.72435402,0.68942821,0,0)"
       r="54.768749"
       cy="230.62495"
       cx="100.81339"
       id="circle906"
       style="fill:none;stroke:none;stroke-width:0.35277778;stroke-linecap:round;stroke-linejoin:round;stroke-miterlimit:4;stroke-dasharray:none;stroke-opacity:1" />
    <g
       aria-label="est. 2019"
       transform="rotate(-34.760426,227.33171,198.86356)"
       style="font-style:normal;font-weight:normal;font-size:10.58333302px;line-height:1.25;font-family:sans-serif;letter-spacing:0px;word-spacing:0px;fill:#000;fill-opacity:1;stroke:none;stroke-width:0.26458332"
       id="text959" />
    <text
       xml:space="preserve"
       style="font-style:normal;font-weight:normal;font-size:10.58333302px;line-height:1.25;font-family:sans-serif;letter-spacing:0px;word-spacing:0px;fill:#000;fill-opacity:1;stroke:none;stroke-width:0.26458332"
       x="96.753098"
       y="284.86554"
       id="text4788"><tspan
         sodipodi:role="line"
         id="tspan4786"
         x="96.753098"
         y="294.22931"
         style="stroke-width:0.26458332" /></text>
    <path
       style="fill:none;stroke:#000;stroke-width:0.26458332px;stroke-linecap:butt;stroke-linejoin:miter;stroke-opacity:1"
       d="M 99.285172,188.87975 Z"
       id="path4801"
       inkscape:connector-curvature="0" />
    <path
       sodipodi:type="star"
       style="fill:none;fill-opacity:1;stroke:none;stroke-width:1.76388884;stroke-linecap:round;stroke-linejoin:round;stroke-miterlimit:4;stroke-dasharray:none;stroke-opacity:1;filter:url(#filter5097)"
       id="path4803"
       sodipodi:sides="6"
       sodipodi:cx="97.550504"
       sodipodi:cy="232.02393"
       sodipodi:r1="16.783812"
       sodipodi:r2="14.535208"
       sodipodi:arg1="0.51914611"
       sodipodi:arg2="1.0427449"
       inkscape:flatsided="true"
       inkscape:rounded="0"
       inkscape:randomized="0"
       d="m 112.12294,240.35103 -14.497701,8.45654 -14.572429,-8.3271 -0.07473,-16.78365 14.497697,-8.45654 14.572426,8.3271 z"
       inkscape:transform-center-x="1.29387e-06"
       inkscape:transform-center-y="-1.748473e-06" />
    <circle
       style="fill:none;fill-opacity:1;stroke:none;stroke-width:0.52246392;stroke-linecap:round;stroke-linejoin:miter;stroke-miterlimit:4;stroke-dasharray:none;stroke-opacity:1"
       id="path5133"
       cx="162.80563"
       cy="191.9519"
       r="37.899517"
       transform="matrix(-0.45233019,0.89185055,0.89185055,0.45233019,0,0)" />
    <circle
       style="fill:none;fill-opacity:1;stroke:none;stroke-width:0.43439367;stroke-linecap:round;stroke-linejoin:miter;stroke-miterlimit:4;stroke-dasharray:none;stroke-opacity:1"
       id="path888"
       cx="78.410393"
       cy="238.66289"
       r="57.680061"
       transform="matrix(-0.75461884,0.6561634,0.6561634,0.75461884,0,0)" />
    <path
       style="fill:none;fill-opacity:1;stroke:#000;stroke-width:1.91338837;stroke-linecap:round;stroke-linejoin:miter;stroke-miterlimit:4;stroke-dasharray:none;stroke-opacity:1"
       d="m 61.671876,223.01665 c 0.144288,-0.62128 0.303828,-1.23994 0.478674,-1.85541 0.174853,-0.61548 0.365,-1.22775 0.570496,-1.83625 0.205488,-0.6085 0.426305,-1.21322 0.662512,-1.81357 0.236193,-0.60035 0.487756,-1.19634 0.754737,-1.78738 0.266968,-0.59104 0.549354,-1.17713 0.847173,-1.75769 0.297832,-0.58056 0.611097,-1.15558 0.939837,-1.72448 0.32874,-0.56891 0.672961,-1.13168 1.032691,-1.68777 0.359731,-0.55608 0.73497,-1.10546 1.125761,-1.64756 0.390798,-0.54207 0.797119,-1.07688 1.21904,-1.60381 0.421891,-0.52695 0.859384,-1.04601 1.312498,-1.55661 0.453114,-0.5106 0.916486,-1.00669 1.389538,-1.48824 0.473059,-0.48155 0.955723,-0.94861 1.447526,-1.40105 0.491779,-0.45248 0.992675,-0.89035 1.502042,-1.31364 0.509381,-0.42328 1.027249,-0.83197 1.553044,-1.226 0.525782,-0.39404 1.059492,-0.77345 1.600523,-1.13818 0.541039,-0.36472 1.089399,-0.71478 1.64451,-1.05012 0.555109,-0.33535 1.116969,-0.65598 1.684985,-0.96188 0.568017,-0.30588 1.14219,-0.59703 1.721949,-0.87339 0.579755,-0.27637 1.165083,-0.53797 1.755406,-0.78474 0.590322,-0.24677 1.185632,-0.47874 1.785354,-0.69585 0.599723,-0.21711 1.203851,-0.41937 1.811795,-0.60676 0.607951,-0.18737 1.219719,-0.35987 1.834729,-0.51745 0.615002,-0.15758 1.233254,-0.30023 1.854144,-0.42795 0.620898,-0.1277 1.244449,-0.24045 1.87007,-0.33821 0.625615,-0.0978 1.253302,-0.18055 1.88247,-0.2483 0.629168,-0.0678 1.259819,-0.12048 1.891364,-0.15816 0.631551,-0.0377 1.263996,-0.0603 1.896761,-0.0678 0.632755,-0.008 1.265835,5e-5 1.898635,0.0228 0.6328,0.0227 1.26533,0.0605 1.89701,0.11351 0.63168,0.053 1.26249,0.12115 1.89187,0.2045 0.62938,0.0833 1.25733,0.1819 1.88323,0.29567 0.62592,0.11378 1.24981,0.24279 1.87108,0.38707 0.62128,0.14429 1.23994,0.30383 1.85542,0.47868 0.61547,0.17485 1.22774,0.365 1.83625,0.57049 0.60849,0.20549 1.21321,0.42631 1.81356,0.6625 0.60036,0.2362 1.19634,0.48777 1.78739,0.75475 0.59103,0.26697 1.17712,0.54935 1.75768,0.84718 0.58055,0.29782 1.15558,0.61109 1.72448,0.93983 0.56891,0.32874 1.13169,0.67296 1.68777,1.03269 0.55608,0.35973 1.10546,0.73497 1.64756,1.12576 0.54209,0.39079 1.07689,0.79712 1.60382,1.21904 0.52692,0.42191 1.04598,0.85941 1.55658,1.31252 0.5106,0.45311 1.0067,0.91648 1.48826,1.38952 0.48157,0.47303 0.94859,0.95574 1.40105,1.44753 0.45246,0.49179 0.89036,0.99267 1.31364,1.50204 0.42329,0.50937 0.83197,1.02725 1.22601,1.55304 0.39404,0.52578 0.77344,1.05949 1.13817,1.60053 0.36473,0.54103 0.71478,1.08939 1.05012,1.6445 0.33535,0.55511 0.65598,1.11697 0.96188,1.68499 0.30589,0.56802 0.59703,1.14219 0.8734,1.72194 0.27637,0.57976 0.53795,1.16509 0.78473,1.75542 0.24678,0.59032 0.47874,1.18563 0.69585,1.78535 0.21711,0.59972 0.41937,1.20384 0.60676,1.81179 0.18737,0.60795 0.35988,1.21972 0.51745,1.83473 m -6.19495,32.94674 c -0.3908,0.54208 -0.79712,1.07689 -1.21904,1.60382 -0.42189,0.52694 -0.85939,1.046 -1.3125,1.5566 -0.45311,0.5106 -0.91649,1.0067 -1.38954,1.48824 -0.47306,0.48155 -0.95572,0.94862 -1.44752,1.40106 -0.49178,0.45247 -0.99268,0.89035 -1.50205,1.31363 -0.50938,0.42329 -1.02725,0.83197 -1.55304,1.22601 -0.52578,0.39404 -1.05949,0.77344 -1.60052,1.13818 -0.54104,0.36472 -1.0894,0.71478 -1.64451,1.05011 -0.55511,0.33535 -1.11697,0.65598 -1.68499,0.96187 -0.56802,0.3059 -1.1422,0.59704 -1.72195,0.87341 -0.57976,0.27637 -1.16508,0.53796 -1.75541,0.78474 -0.59032,0.24677 -1.18563,0.47873 -1.78535,0.69585 -0.59972,0.21711 -1.20385,0.41937 -1.81179,0.60675 -0.60795,0.18738 -1.21972,0.35987 -1.83473,0.51746 -0.61501,0.15757 -1.23326,0.30023 -1.85416,0.42794 -0.62088,0.12771 -1.24443,0.24046 -1.87005,0.33822 -0.62562,0.0978 -1.25331,0.18055 -1.88247,0.24829 -0.62917,0.0678 -1.25982,0.12049 -1.89137,0.15817 -0.63155,0.0377 -1.26399,0.0603 -1.89676,0.0678 -0.63276,0.008 -1.265833,-5e-5 -1.898636,-0.0228 -0.632803,-0.0227 -1.265341,-0.0605 -1.897005,-0.11351 -0.631677,-0.053 -1.262496,-0.12114 -1.891876,-0.20449 -0.629387,-0.0833 -1.257323,-0.1819 -1.883233,-0.29568 -0.625912,-0.11378 -1.249799,-0.24279 -1.871075,-0.38707 -0.621278,-0.14428 -1.239945,-0.30382 -1.855417,-0.47867 -0.615479,-0.17485 -1.227747,-0.365 -1.836249,-0.5705 -0.608494,-0.20548 -1.213214,-0.4263 -1.813567,-0.66251 -0.600352,-0.23619 -1.196343,-0.48775 -1.787382,-0.75473 -0.591039,-0.26697 -1.177124,-0.54936 -1.757684,-0.84718 -0.580561,-0.29783 -1.155582,-0.61109 -1.724478,-0.93983 -0.56891,-0.32874 -1.131689,-0.67297 -1.687777,-1.0327 -0.556075,-0.35973 -1.105459,-0.73497 -1.647555,-1.12576 -0.542074,-0.39079 -1.076886,-0.79711 -1.603816,-1.21904 -0.526943,-0.42189 -1.046004,-0.85938 -1.556604,-1.31249 -0.5106,-0.45312 -1.006696,-0.91649 -1.488238,-1.38954 -0.48155,-0.47306 -0.948613,-0.95573 -1.401055,-1.44753 -0.452476,-0.49178 -0.890351,-0.99267 -1.313636,-1.50204 -0.423286,-0.50938 -0.831969,-1.02725 -1.226008,-1.55304 -0.394038,-0.52579 -0.77344,-1.05949 -1.138177,-1.60053 -0.364722,-0.54104 -0.714779,-1.0894 -1.050115,-1.64451 -0.33535,-0.55511 -0.65598,-1.11697 -0.961874,-1.68498 -0.305894,-0.56802 -0.597039,-1.14219 -0.873401,-1.72195 -0.276376,-0.57976 -0.53796,-1.16508 -0.784741,-1.75541 -0.246773,-0.59032 -0.478734,-1.18563 -0.695849,-1.78535 -0.217108,-0.59972 -0.419369,-1.20385 -0.606755,-1.8118"
       id="circle847"
       inkscape:connector-curvature="0"
       sodipodi:nodetypes="csssssssssssssssssssssssssssssssssssssssssssssssssssssccssssssssssssssssssssssssssssssssssssssssssssc" />
    <g
       aria-label="MEGAN"
       style="font-style:normal;font-weight:normal;font-size:10.58333302px;line-height:1.25;font-family:sans-serif;letter-spacing:0px;word-spacing:0px;fill:#000;fill-opacity:1;stroke:none;stroke-width:0.26458332"
       id="text855"
       transform="translate(12.700002)">
      <path
         d="m 58.051431,183.51287 q 0.235914,-0.17932 0.469331,-0.13342 0.249145,0.034 0.416516,0.25414 l 7.782776,10.23867 q 0.167372,0.22019 0.149147,0.45738 -0.01823,0.23718 -0.238411,0.40456 -0.220187,0.16737 -0.425921,0.12523 -0.217689,-0.0579 -0.397016,-0.29377 l -6.635085,-8.72882 1.747999,10.0366 q 0.08624,0.5052 -0.244043,0.75625 -0.33028,0.25106 -0.793978,0.0328 l -9.186516,-4.28306 6.587265,8.66591 q 0.179327,0.23591 0.176829,0.46114 -0.01445,0.20951 -0.234638,0.37688 -0.235914,0.17933 -0.457376,0.14915 -0.217689,-0.0579 -0.397016,-0.29378 l -7.782776,-10.23867 q -0.167371,-0.22018 -0.149147,-0.45737 0.03395,-0.24915 0.269867,-0.42847 0.283097,-0.21519 0.746795,0.003 l 10.399561,4.89952 -2.001023,-11.28355 q -0.08624,-0.50519 0.19686,-0.72039 z"
         style="font-style:normal;font-variant:normal;font-weight:300;font-stretch:normal;font-size:19.75555611px;font-family:Nunito;-inkscape-font-specification:'Nunito Light';stroke-width:0.26458332"
         id="path841"
         inkscape:connector-curvature="0" />
      <path
         d="m 71.111768,192.76745 q -0.262583,0.0869 -0.505984,-0.0199 -0.224644,-0.11296 -0.305305,-0.35678 l -3.98957,-12.06006 q -0.08066,-0.24383 0.0323,-0.46848 0.131718,-0.23085 0.394301,-0.31771 l 7.127251,-2.35776 q 0.243827,-0.0807 0.418551,0.007 0.19348,0.0817 0.27414,0.32549 0.07446,0.22507 -0.03216,0.40599 -0.08786,0.17473 -0.331686,0.25539 l -6.602085,2.18402 1.656633,5.00784 6.226967,-2.05994 q 0.243827,-0.0807 0.418551,0.007 0.19348,0.0817 0.27414,0.32548 0.08066,0.24383 -0.02595,0.42476 -0.08786,0.17472 -0.331686,0.25538 l -6.226967,2.05994 1.724884,5.21414 6.602085,-2.18402 q 0.243827,-0.0807 0.418551,0.007 0.187275,0.0629 0.267935,0.30672 0.08066,0.24383 -0.02595,0.42476 -0.08786,0.17472 -0.331686,0.25538 z"
         style="font-style:normal;font-variant:normal;font-weight:300;font-stretch:normal;font-size:19.75555611px;font-family:Nunito;-inkscape-font-specification:'Nunito Light';stroke-width:0.26458332"
         id="path843"
         inkscape:connector-curvature="0" />
      <path
         d="m 91.466184,182.3931 q 0.237021,-0.005 0.378388,0.15064 0.160731,0.13516 0.165389,0.37218 l 0.102857,5.23421 q 0.01009,0.51354 -0.440317,0.71999 -0.802446,0.3912 -1.96353,0.63136 -1.141331,0.23979 -2.326436,0.26307 -2.034429,0.04 -3.532112,-0.76048 -1.478319,-0.8206 -2.299828,-2.40497 -0.802146,-1.6045 -0.846006,-3.83645 -0.04308,-2.19244 0.695795,-3.80747 0.738878,-1.61503 2.164065,-2.49269 1.424799,-0.89741 3.399973,-0.93622 1.382622,-0.0272 2.596406,0.40344 1.213395,0.41086 2.000015,1.2253 0.261819,0.25172 0.268029,0.56775 0.0043,0.21727 -0.111136,0.37761 -0.115405,0.16035 -0.293171,0.16384 -0.158014,0.003 -0.438419,-0.18898 -1.063921,-0.8485 -1.959348,-1.16682 -0.895427,-0.31831 -2.041028,-0.2958 -2.449216,0.0481 -3.761283,1.65466 -1.292704,1.5864 -1.236035,4.47015 0.05783,2.94301 1.431615,4.47701 1.373782,1.53399 3.941509,1.48353 0.987587,-0.0194 1.932565,-0.19605 0.964342,-0.19679 1.708698,-0.52756 l -0.08927,-4.5429 -3.199783,0.0629 q -0.276524,0.005 -0.437255,-0.12973 -0.140979,-0.13554 -0.145637,-0.37256 -0.0047,-0.23703 0.130887,-0.378 0.155297,-0.14137 0.431822,-0.14681 z"
         style="font-style:normal;font-variant:normal;font-weight:300;font-stretch:normal;font-size:19.75555611px;font-family:Nunito;-inkscape-font-specification:'Nunito Light';stroke-width:0.26458332"
         id="path846"
         inkscape:connector-curvature="0" />
      <path
         d="m 106.97347,193.07155 q 0.0195,0.13108 -0.0172,0.24375 -0.0675,0.20658 -0.28553,0.30163 -0.21194,0.0763 -0.43729,0.003 -0.15024,-0.049 -0.26982,-0.19201 -0.1008,-0.13682 -0.12073,-0.33037 l -0.36032,-3.73371 -7.286565,-2.37918 -2.513,2.79553 q -0.285525,0.30163 -0.642342,0.18512 -0.225357,-0.0736 -0.351452,-0.26023 -0.101184,-0.19929 -0.0276,-0.42465 0.04292,-0.13146 0.105011,-0.19432 l 9.506248,-10.52904 q 0.30392,-0.35797 0.75463,-0.2108 0.20658,0.0675 0.33881,0.23532 0.151,0.174 0.1648,0.38632 z m -8.014436,-6.96028 6.403916,2.09098 -0.81951,-8.31021 z"
         style="font-style:normal;font-variant:normal;font-weight:300;font-stretch:normal;font-size:19.75555611px;font-family:Nunito;-inkscape-font-specification:'Nunito Light';stroke-width:0.26458332"
         id="path848"
         inkscape:connector-curvature="0" />
      <path
         d="m 125.75138,190.24685 q 0.21927,0.16858 0.22053,0.39382 0.029,0.22162 -0.15166,0.45655 l -7.8389,10.19576 q -0.16857,0.21927 -0.40224,0.26389 -0.23366,0.0446 -0.45293,-0.12395 -0.23492,-0.18062 -0.24224,-0.56004 l 0.25659,-14.53016 -6.91172,8.98981 q -0.16857,0.21927 -0.40224,0.26389 -0.23366,0.0446 -0.43727,-0.11191 -0.23492,-0.18062 -0.24822,-0.3902 -0.001,-0.22525 0.17936,-0.46017 l 7.83889,-10.19577 q 0.16858,-0.21926 0.40225,-0.26389 0.24932,-0.0326 0.48425,0.14804 0.25059,0.19266 0.22658,0.548 l -0.26021,14.50246 6.89967,-8.97416 q 0.16858,-0.21926 0.40225,-0.26388 0.23366,-0.0446 0.43726,0.11191 z"
         style="font-style:normal;font-variant:normal;font-weight:300;font-stretch:normal;font-size:19.75555611px;font-family:Nunito;-inkscape-font-specification:'Nunito Light';stroke-width:0.26458332"
         id="path850"
         inkscape:connector-curvature="0" />
    </g>
    <g
       aria-label="CHAVEZ"
       style="font-style:normal;font-weight:normal;font-size:10.58333302px;line-height:1.25;font-family:sans-serif;letter-spacing:0px;word-spacing:0px;fill:#000;fill-opacity:1;stroke:none;stroke-width:0.26458332"
       id="text856"
       transform="translate(12.700002)">
      <path
         d="m 49.999131,274.42966 q -1.429014,-1.30621 -1.92035,-2.90622 -0.463426,-1.60126 0.04751,-3.3022 0.538844,-1.7022 2.018328,-3.32078 1.479484,-1.61857 3.113215,-2.29321 1.648313,-0.6613 3.271334,-0.32865 1.650932,0.33139 3.079946,1.6376 0.976979,0.89302 1.545325,2.02813 0.596258,1.13384 0.648888,2.30608 0.03087,0.37617 -0.182387,0.60948 -0.146616,0.1604 -0.355318,0.18375 -0.19412,0.0367 -0.310774,-0.07 -0.145818,-0.13328 -0.202094,-0.45237 -0.200954,-1.36135 -0.615965,-2.1957 -0.41501,-0.83436 -1.275335,-1.62075 -1.764395,-1.61277 -3.807668,-1.33925 -2.028692,0.28685 -3.961351,2.40121 -1.945988,2.12894 -2.049886,4.17517 -0.08932,2.05957 1.675079,3.67234 0.860325,0.78639 1.728511,1.12496 0.868186,0.33857 2.242064,0.41672 0.352013,0.0541 0.468667,0.16075 0.116654,0.10662 0.09752,0.30325 -0.0046,0.20996 -0.151173,0.37036 -0.213259,0.2333 -0.590677,0.23627 -1.172239,0.0526 -2.368287,-0.42504 -1.168138,-0.47893 -2.145117,-1.37195 z"
         style="font-style:normal;font-variant:normal;font-weight:300;font-stretch:normal;font-size:19.75555611px;font-family:Nunito;-inkscape-font-specification:'Nunito Light';letter-spacing:3.89995837px;stroke-width:0.26458332"
         id="path861"
         inkscape:connector-curvature="0" />
      <path
         d="m 74.786012,272.80167 q 0.270639,0.1207 0.34256,0.34746 0.07997,0.20871 -0.04073,0.47935 l -5.238347,11.74571 q -0.120699,0.27063 -0.337459,0.36864 -0.208713,0.08 -0.479352,-0.0407 -0.252596,-0.11265 -0.324517,-0.33941 -0.07192,-0.22675 0.04073,-0.47935 l 2.446171,-5.48494 -8.119152,-3.62097 -2.446171,5.48493 q -0.112653,0.2526 -0.329413,0.35061 -0.21676,0.098 -0.469356,-0.0146 -0.252595,-0.11265 -0.342559,-0.34746 -0.07192,-0.22675 0.04073,-0.47935 l 5.238347,-11.74571 q 0.112652,-0.25259 0.329412,-0.3506 0.234803,-0.09 0.487399,0.0227 0.252596,0.11265 0.324517,0.33941 0.07192,0.22675 -0.04073,0.47935 l -2.357659,5.28647 8.119152,3.62098 2.357659,-5.28647 q 0.112652,-0.2526 0.329412,-0.35061 0.216761,-0.098 0.469356,0.0146 z"
         style="font-style:normal;font-variant:normal;font-weight:300;font-stretch:normal;font-size:19.75555611px;font-family:Nunito;-inkscape-font-specification:'Nunito Light';letter-spacing:3.89995837px;stroke-width:0.26458332"
         id="path863"
         inkscape:connector-curvature="0" />
      <path
         d="m 88.703286,288.22826 q 0.04671,0.12402 0.03448,0.24192 -0.02244,0.21615 -0.215601,0.35499 -0.191127,0.11919 -0.426927,0.0947 -0.1572,-0.0163 -0.304202,-0.13088 -0.127352,-0.11253 -0.187596,-0.29754 l -1.138518,-3.5741 -7.624197,-0.79135 -1.867931,3.26205 q -0.215602,0.355 -0.588952,0.31625 -0.2358,-0.0245 -0.398373,-0.18038 -0.140883,-0.17352 -0.116409,-0.40932 0.01428,-0.13755 0.06173,-0.21207 l 7.075743,-12.29485 q 0.221721,-0.41394 0.69332,-0.36499 0.21615,0.0224 0.380763,0.15869 0.184263,0.13829 0.242467,0.34295 z m -9.300481,-5.11643 6.700648,0.69549 -2.551193,-7.95127 z"
         style="font-style:normal;font-variant:normal;font-weight:300;font-stretch:normal;font-size:19.75555611px;font-family:Nunito;-inkscape-font-specification:'Nunito Light';letter-spacing:3.89995837px;stroke-width:0.26458332"
         id="path865"
         inkscape:connector-curvature="0" />
      <path
         d="m 101.25158,272.84201 q 0.0691,-0.35656 0.43708,-0.43079 0.23239,-0.0469 0.43793,0.0729 0.221,0.0965 0.26398,0.3095 0.0234,0.11619 -0.0112,0.24411 l -3.072361,13.84061 q -0.03839,0.20928 -0.208604,0.36454 -0.150846,0.15136 -0.363866,0.19433 -0.193653,0.0391 -0.406842,-0.0187 -0.19773,-0.081 -0.337533,-0.27451 L 89.81123,275.57332 q -0.08154,-0.10447 -0.101072,-0.20129 -0.04688,-0.23239 0.100056,-0.40311 0.162398,-0.19399 0.394782,-0.24087 0.367942,-0.0742 0.569918,0.22763 l 7.642982,10.81218 z"
         style="font-style:normal;font-variant:normal;font-weight:300;font-stretch:normal;font-size:19.75555611px;font-family:Nunito;-inkscape-font-specification:'Nunito Light';letter-spacing:3.89995837px;stroke-width:0.26458332"
         id="path867"
         inkscape:connector-curvature="0" />
      <path
         d="m 111.14668,283.38459 q -0.24405,0.13012 -0.50203,0.0662 -0.24054,-0.0733 -0.36137,-0.29987 l -5.97622,-11.20922 q -0.12082,-0.22662 -0.0476,-0.46717 0.0907,-0.24983 0.33474,-0.37995 l 6.62442,-3.53183 q 0.22662,-0.12082 0.41371,-0.0639 0.20452,0.0477 0.32535,0.27429 0.11153,0.2092 0.0371,0.40558 -0.057,0.18709 -0.2836,0.30791 l -6.1363,3.27159 2.48157,4.65453 5.78765,-3.0857 q 0.22663,-0.12083 0.41371,-0.0639 0.20453,0.0477 0.32535,0.2743 0.12083,0.22662 0.0464,0.42301 -0.057,0.18708 -0.2836,0.30791 l -5.78765,3.0857 2.58381,4.84629 6.13631,-3.27159 q 0.22662,-0.12083 0.41371,-0.0639 0.19523,0.0302 0.31605,0.25687 0.12083,0.22662 0.0464,0.42301 -0.057,0.18709 -0.2836,0.30791 z"
         style="font-style:normal;font-variant:normal;font-weight:300;font-stretch:normal;font-size:19.75555611px;font-family:Nunito;-inkscape-font-specification:'Nunito Light';letter-spacing:3.89995837px;stroke-width:0.26458332"
         id="path869"
         inkscape:connector-curvature="0" />
      <path
         d="m 129.04797,268.94963 q 0.20032,-0.1907 0.39583,-0.1859 0.1962,-0.0231 0.37328,0.16289 0.17708,0.18601 0.15797,0.39514 -0.005,0.19551 -0.20512,0.38621 l -6.52464,6.21152 q -0.20031,0.1907 -0.41013,0.19952 -0.20982,0.009 -0.37328,-0.16289 -0.16346,-0.1717 -0.19815,-0.466 l -2.21937,-14.30754 -5.70905,5.43507 q -0.1717,0.16346 -0.38152,0.17228 -0.19551,-0.005 -0.35898,-0.17651 -0.17708,-0.18601 -0.17227,-0.38152 0.0191,-0.20913 0.19081,-0.37259 l 6.39586,-6.08892 q 0.20032,-0.1907 0.42376,-0.18521 0.20982,-0.009 0.37328,0.16289 0.16346,0.1717 0.19883,0.43806 l 2.20507,14.32117 z"
         style="font-style:normal;font-variant:normal;font-weight:300;font-stretch:normal;font-size:19.75555611px;font-family:Nunito;-inkscape-font-specification:'Nunito Light';letter-spacing:3.89995837px;stroke-width:0.26458332"
         id="path871"
         inkscape:connector-curvature="0" />
    </g>
    <path
       style="fill:none;fill-opacity:1;stroke:#000;stroke-width:1.76388884;stroke-linecap:round;stroke-linejoin:miter;stroke-miterlimit:4;stroke-dasharray:none;stroke-opacity:1"
       d="m 125.40286,215.68028 c -0.52311,-0.80944 -1.08604,-1.59519 -1.68748,-2.35396 -0.60144,-0.75876 -1.2414,-1.49052 -1.91852,-2.19201 -0.67712,-0.70147 -1.39143,-1.37265 -2.14159,-2.01024 -0.75015,-0.63759 -1.53616,-1.24158 -2.35669,-1.80869 -0.82054,-0.56711 -1.67559,-1.09731 -2.56384,-1.58734 -0.88826,-0.49001 -1.80971,-0.93984 -2.76302,-1.34618 -0.95332,-0.40633 -1.91594,-0.75956 -2.88457,-1.061 m -5.85745,-1.19789 c -0.97946,-0.0996 -1.95831,-0.15012 -2.93329,-0.15282"
       id="path874"
       inkscape:connector-curvature="0"
       sodipodi:nodetypes="cssssssccc" />
    <g
       aria-label="Est. 2019"
       style="font-style:normal;font-variant:normal;font-weight:normal;font-stretch:normal;font-size:10.58333302px;line-height:1.25;font-family:'Dancing Script';-inkscape-font-specification:'Dancing Script';letter-spacing:0px;word-spacing:0px;fill:#000;fill-opacity:1;stroke:none;stroke-width:0.26458332"
       id="text886"
       transform="matrix(-0.9355607,1.4711439,-1.4711439,-0.9355607,551.49809,338.55351)">
      <g
         aria-label="Est.2019"
         style="font-style:normal;font-weight:normal;font-size:5.73782253px;line-height:1.25;font-family:sans-serif;letter-spacing:0px;word-spacing:0px;fill:#000;fill-opacity:1;stroke:none;stroke-width:0.0379533"
         id="text896">
        <path
           d="m 108.393,250.36272 q 0.0204,0.4366 -0.14653,0.76527 -0.16694,0.32867 -0.45712,0.51726 -0.29779,0.18165 -0.65434,0.19832 -0.33472,0.0156 -0.66169,-0.11491 -0.32697,-0.13056 -0.60084,-0.37299 -0.28148,-0.24936 -0.46483,-0.58354 -0.19063,-0.33383 -0.24539,-0.72506 -0.21958,0.29467 -0.51873,0.44722 -0.29949,0.14526 -0.6051,0.15955 -0.38566,0.018 -0.7365,-0.15516 -0.35847,-0.18014 -0.58548,-0.51227 -0.23428,-0.33179 -0.25436,-0.76111 -0.0191,-0.40748 0.17482,-0.62803 0.19388,-0.22055 0.57226,-0.23824 0.26923,-0.0126 0.52834,0.0701 0.2591,0.0827 0.42565,0.21345 0.16621,0.1235 0.17199,0.2472 0.004,0.08 -0.0583,0.15587 -0.0694,0.0762 -0.16192,0.12425 -0.23748,-0.24413 -0.49305,-0.4072 -0.26319,-0.17001 -0.54697,-0.15674 -0.22557,0.0105 -0.34315,0.14731 -0.11758,0.13676 -0.10567,0.39144 0.0156,0.33472 0.23028,0.55805 0.20736,0.22366 0.54786,0.33171 0.33289,0.10111 0.7331,0.0824 0.26196,-0.0122 0.56383,-0.10658 0.30187,-0.0943 0.5152,-0.36683 0.10283,0.48378 0.41091,0.834 0.30773,0.34294 0.71019,0.52831 0.40212,0.1781 0.78778,0.16006 0.24013,-0.0112 0.48345,-0.11011 0.2357,-0.10582 0.38626,-0.31705 0.15783,-0.21157 0.14184,-0.55357 -0.018,-0.38566 -0.25402,-0.75383 -0.23633,-0.37545 -0.60785,-0.67895 -0.37152,-0.30349 -0.79513,-0.47329 l 0.068,-0.10527 q 0.50671,0.23154 0.91564,0.55516 0.40892,0.32363 0.65423,0.73512 0.25258,0.41115 0.27538,0.89868 z"
           style="font-style:normal;font-variant:normal;font-weight:normal;font-stretch:normal;font-size:7.28450298px;font-family:'Dancing Script';-inkscape-font-specification:'Dancing Script';letter-spacing:0.22157031px;stroke-width:0.0379533"
           id="path901" />
        <path
           d="m 107.82089,247.33157 q 0.0677,0.3356 -0.0419,0.5658 -0.1039,0.22161 -0.30227,0.34339 -0.19692,0.12892 -0.41114,0.17215 -0.21422,0.0432 -0.33999,0.009 -0.12578,-0.0341 -0.19876,-0.10109 -0.0744,-0.0742 -0.11738,-0.1398 -0.0444,-0.0728 -0.0787,-0.0956 -0.27887,-0.16667 -0.57196,-0.29331 -0.29308,-0.12663 -0.60608,-0.20466 l -0.0857,0.0173 q -0.2642,0.0533 -0.3886,-0.0108 -0.13298,-0.0698 -0.15315,-0.16974 -0.0115,-0.0571 0.0113,-0.0915 0.0228,-0.0343 0.0585,-0.0415 0.0357,-0.007 0.11857,-0.002 0.0829,0.006 0.20426,-0.0189 0.23564,-0.0476 0.49539,-0.19658 0.2526,-0.14758 0.54091,-0.30237 0.28118,-0.15335 0.60964,-0.21964 0.0928,-0.0187 0.18854,-0.0232 0.0871,-0.0102 0.16999,-0.005 -0.0933,-0.24127 -0.31646,-0.42661 -0.23032,-0.18389 -0.67198,-0.31027 l 0.0584,-0.0787 q 0.42011,0.0564 0.68195,0.28597 0.25469,0.23099 0.36952,0.54223 0.3301,0.0523 0.52334,0.27338 0.19181,0.21396 0.25377,0.52101 z m -0.2528,0.0361 q -0.0173,-0.0857 -0.10324,-0.21697 -0.0859,-0.13128 -0.33743,-0.16228 0.003,0.31143 -0.12757,0.5831 -0.1324,0.26452 -0.28786,0.41479 0.0388,0.15565 0.28162,0.10666 0.25706,-0.0519 0.44816,-0.2465 0.18252,-0.20032 0.12632,-0.4788 z m -0.56212,-0.39189 q -0.0743,1.2e-4 -0.15428,0.009 -0.08,0.009 -0.18709,0.0303 -0.33561,0.0677 -0.64678,0.2197 -0.31976,0.14627 -0.60099,0.26247 0.30448,0.10948 0.59186,0.2447 0.27881,0.12952 0.47618,0.26061 0.20689,-0.15322 0.36215,-0.41492 0.15383,-0.26885 0.15895,-0.61172 z"
           style="font-style:normal;font-variant:normal;font-weight:normal;font-stretch:normal;font-size:7.28450298px;font-family:'Dancing Script';-inkscape-font-specification:'Dancing Script';letter-spacing:0.22157031px;stroke-width:0.0379533"
           id="path903" />
        <path
           d="m 107.16092,244.77963 q 0.0991,0.29713 -0.0206,0.5137 -0.11972,0.21657 -0.45832,0.32954 -0.30404,0.10144 -0.78317,0.13843 -0.48834,0.0324 -1.01586,0.0164 0.009,0.0737 0.0231,0.13821 0.007,0.0668 0.005,0.129 l -0.12438,0.0415 q -0.0115,-0.0576 -0.03,-0.13591 -0.0185,-0.0783 -0.0438,-0.17736 -0.42156,-0.0206 -0.82239,-0.0712 -0.40775,-0.0483 -0.73026,-0.11728 -0.33174,-0.0736 -0.53908,-0.1657 -0.21656,-0.0967 -0.25115,-0.20034 -0.0184,-0.0553 0.009,-0.11057 0.0184,-0.0599 0.0944,-0.0853 0.11747,-0.0392 0.43538,0.016 0.31099,0.0575 0.7487,0.14952 0.4377,0.092 0.93298,0.14947 -0.0207,-0.0622 -0.0415,-0.12438 -0.023,-0.0691 -0.0438,-0.13129 -0.0761,-0.22803 -0.16599,-0.47449 -0.0922,-0.25336 -0.20516,-0.49981 l 0.12438,-0.0415 q 0.16826,0.36622 0.29044,0.66334 0.11986,0.29022 0.19825,0.52516 0.009,0.0276 0.0184,0.0553 0.007,0.0207 0.0161,0.0484 0.41926,0.0367 0.84311,0.0182 0.42385,-0.0185 0.79008,-0.14073 0.29713,-0.0991 0.39845,-0.23278 0.0944,-0.13133 0.0252,-0.33863 -0.11989,-0.35932 -0.55302,-0.59877 -0.43314,-0.23945 -1.06664,-0.31989 l 0.0391,-0.11289 q 0.44229,0.0367 0.83855,0.18866 0.39395,0.14501 0.67505,0.38911 0.2811,0.2441 0.38946,0.56887 z"
           style="font-style:normal;font-variant:normal;font-weight:normal;font-stretch:normal;font-size:7.28450298px;font-family:'Dancing Script';-inkscape-font-specification:'Dancing Script';letter-spacing:0.22157031px;stroke-width:0.0379533"
           id="path905" />
        <path
           d="m 106.23589,243.00378 q 0.0388,0.0864 0.022,0.17374 -0.013,0.0777 -0.10611,0.11943 -0.0731,0.0328 -0.15976,-2.1e-4 -0.0933,-0.03 -0.16527,-0.10152 -0.0816,-0.0752 -0.12036,-0.16158 -0.0358,-0.0798 -0.0234,-0.1412 0.0124,-0.0614 0.10543,-0.10316 0.0665,-0.0298 0.15678,-0.006 0.0873,0.0167 0.16963,0.0756 0.0823,0.0589 0.12104,0.14531 z"
           style="font-style:normal;font-variant:normal;font-weight:normal;font-stretch:normal;font-size:7.28450298px;font-family:'Dancing Script';-inkscape-font-specification:'Dancing Script';letter-spacing:0.22157031px;stroke-width:0.0379533"
           id="path907" />
        <path
           d="m 104.59386,238.84441 q 0.11378,0.17799 0.19535,0.45438 0.0816,0.27639 0.1398,0.61093 0.0604,0.32448 0.12037,0.67522 0.24438,0.1118 0.42567,0.24664 0.18351,0.12477 0.28552,0.28435 0.1177,0.18413 0.10018,0.3596 -0.0175,0.17547 -0.16483,0.26963 -0.14117,0.0902 -0.28544,0.0268 -0.15041,-0.0595 -0.30342,-0.29885 -0.0863,-0.13503 -0.16377,-0.3103 -0.0814,-0.18141 -0.16226,-0.38908 -0.43211,-0.12148 -0.98477,-0.17455 -0.55266,-0.0531 -1.14145,-0.0139 -0.59885,0.037 -1.14106,0.17607 -0.55227,0.13688 -0.95736,0.39583 -0.46033,0.29425 -0.54517,0.60785 -0.09098,0.31752 0.0895,0.59986 0.17263,0.27006 0.45997,0.35439 0.27728,0.0821 0.62239,-1.4e-4 0.34511,-0.0823 0.69495,-0.30591 0.12276,-0.0785 0.20698,-0.14959 0.0742,-0.0733 0.16331,-0.19085 0.004,0.006 0.008,0.0123 0.004,0.006 0.0118,0.0184 0.0782,0.24399 0.0322,0.42902 -0.0521,0.18894 -0.30378,0.3498 -0.33143,0.21186 -0.72583,0.23054 -0.40447,0.0165 -0.77078,-0.16437 -0.37638,-0.18304 -0.62747,-0.57586 -0.196168,-0.30688 -0.180043,-0.61978 0.0061,-0.31512 0.183166,-0.59259 0.173177,-0.28362 0.486197,-0.48371 0.30689,-0.19616 0.66478,-0.31254 0.35789,-0.11638 0.72875,-0.17189 0.45799,-0.068 0.97313,-0.0601 0.50899,0.0118 1.00863,0.0901 0.49571,0.0722 0.9234,0.21378 -0.19213,-0.51696 -0.33476,-0.87536 -0.14043,-0.36845 -0.28167,-0.58941 -0.0745,-0.11662 -0.17414,-0.19128 -0.0974,-0.0847 -0.27747,-0.1771 0.36402,-0.1203 0.60327,-0.0571 0.24147,0.0531 0.3984,0.29866 z m 1.00491,2.38359 q -0.0628,-0.0982 -0.19255,-0.17951 -0.12365,-0.0852 -0.29197,-0.15919 0.0411,0.17255 0.0889,0.31492 0.0439,0.13623 0.0988,0.22216 0.0785,0.12276 0.16509,0.13655 0.0766,0.0116 0.11953,-0.0159 0.0675,-0.0432 0.0673,-0.13813 -0.004,-0.10112 -0.0551,-0.18091 z"
           style="font-style:normal;font-variant:normal;font-weight:normal;font-stretch:normal;font-size:7.28450298px;font-family:'Dancing Script';-inkscape-font-specification:'Dancing Script';letter-spacing:0.22157031px;stroke-width:0.0379533"
           id="path909" />
        <path
           d="m 102.48867,236.29387 q 0.34092,0.33899 0.36783,0.74584 0.032,0.40168 -0.16252,0.81431 -0.20486,0.41266 -0.55926,0.76908 -0.34927,0.35126 -0.8223,0.65136 -0.47818,0.30526 -1.00815,0.50765 -0.535106,0.20756 -1.055157,0.276 -0.530352,0.0685 -0.98909,-0.0384 -0.469039,-0.10684 -0.799633,-0.43556 -0.315097,-0.31331 -0.383156,-0.69944 -0.07319,-0.38096 0.08533,-0.78834 0.153356,-0.41251 0.538577,-0.79992 0.416038,-0.41841 0.925055,-0.74436 0.509018,-0.32596 1.054457,-0.52324 0.53514,-0.19726 1.06038,-0.25026 0.51495,-0.053 0.96858,0.0694 0.45363,0.12233 0.77906,0.44592 z m -0.24695,0.10372 q -0.23245,-0.23113 -0.62401,-0.26093 -0.39672,-0.0349 -0.88055,0.0901 -0.48384,0.125 -0.987954,0.36337 -0.504115,0.23838 -0.961653,0.55389 -0.462703,0.31037 -0.801697,0.65129 -0.292767,0.29444 -0.456777,0.58336 -0.169145,0.29408 -0.163219,0.56706 7.61e-4,0.26785 0.228044,0.49385 0.232449,0.23113 0.572584,0.29197 0.334969,0.0557 0.731369,-0.0227 0.391264,-0.0732 0.808004,-0.24439 0.406439,-0.17113 0.802399,-0.40405 0.39596,-0.23292 0.73005,-0.48626 0.33409,-0.25335 0.57036,-0.49096 0.47768,-0.4804 0.60515,-0.93919 0.11717,-0.45877 -0.1721,-0.7464 z"
           style="font-style:normal;font-variant:normal;font-weight:normal;font-stretch:normal;font-size:7.28450298px;font-family:'Dancing Script';-inkscape-font-specification:'Dancing Script';letter-spacing:0.22157031px;stroke-width:0.0379533"
           id="path911" />
        <path
           d="m 99.983358,234.03067 q 0.108452,0.0737 0.195962,0.23004 0.0916,0.15033 0.0941,0.32815 -0.0441,-0.0388 -0.0923,-0.0715 -0.0441,-0.0388 -0.0923,-0.0715 -0.156648,-0.10645 -0.341726,-0.19699 -0.180984,-0.0966 -0.354011,-0.17891 -0.28041,0.17935 -0.626561,0.48137 -0.35627,0.30395 -0.737339,0.67031 -0.381068,0.36636 -0.750087,0.74091 -0.379137,0.37649 -0.709377,0.70693 -0.336264,0.32635 -0.586781,0.55244 0.507197,-0.008 0.711048,0.0164 0.197826,0.0199 0.252051,0.0568 0.0723,0.0491 0.094,0.10792 0.01158,0.0607 -0.06211,0.16916 -0.155418,-0.0175 -0.472745,-0.004 -0.323352,0.009 -0.723797,0.0542 -0.400444,0.045 -0.777022,0.13253 -0.01375,-0.0446 0.01515,-0.11301 0.0248,-0.0624 0.05755,-0.11062 0.102357,-0.15062 0.275316,-0.2885 0.168865,-0.13185 0.321818,-0.29213 0.342755,-0.37479 0.76886,-0.80742 0.426106,-0.43264 0.890525,-0.85686 0.4543,-0.42228 0.90404,-0.78602 0.445646,-0.35771 0.8376,-0.58456 -0.07446,-0.033 -0.138808,-0.0679 -0.06025,-0.0409 -0.114475,-0.0778 -0.228951,-0.15558 -0.344659,-0.32228 -0.111614,-0.17273 -0.01049,-0.41226 0.112312,0.0939 0.224624,0.18787 0.110381,0.0838 0.230882,0.1657 0.186776,0.12692 0.36969,0.2336 0.182914,0.10669 0.353778,0.20518 0.174959,0.0925 0.337635,0.20302 z"
           style="font-style:normal;font-variant:normal;font-weight:normal;font-stretch:normal;font-size:7.28450298px;font-family:'Dancing Script';-inkscape-font-specification:'Dancing Script';letter-spacing:0.22157031px;stroke-width:0.0379533"
           id="path913" />
        <path
           d="m 96.480725,231.8902 q 0.272554,0.12212 0.414009,0.30524 0.137785,0.17349 0.04545,0.37957 -0.0417,0.0931 -0.137275,0.14603 -0.09557,0.053 -0.292241,0.0287 0.02085,-0.0465 0.04239,-0.0768 0.01489,-0.0332 0.03872,-0.0864 0.06553,-0.14625 0.04602,-0.29867 -0.01951,-0.15243 -0.252176,-0.25668 -0.319088,-0.14298 -0.689249,-0.0295 -0.373829,0.1039 -0.762987,0.38452 -0.389157,0.28062 -0.744604,0.66415 -0.365072,0.3872 -0.654042,0.80052 0.298416,-0.11374 0.648199,-0.0927 0.343135,0.0181 0.648927,0.15507 0.339031,0.15191 0.568976,0.42258 0.220319,0.27433 0.259118,0.65092 0.0388,0.37659 -0.169709,0.84193 -0.217443,0.48528 -0.596284,0.7785 -0.388467,0.2969 -0.862012,0.35611 -0.480192,0.0562 -0.972119,-0.16418 -0.518518,-0.23234 -0.723726,-0.61166 -0.208186,-0.37266 -0.162419,-0.8311 0.03614,-0.45476 0.250606,-0.93339 0.20255,-0.45204 0.538961,-0.89998 0.329763,-0.45092 0.750306,-0.83721 0.417564,-0.37964 0.889472,-0.63117 0.462282,-0.24785 0.942474,-0.30409 0.48317,-0.0629 0.935212,0.13967 z m -1.936265,2.16569 q -0.531814,-0.23829 -0.917085,-0.0198 -0.391919,0.21552 -0.624255,0.73404 -0.110212,0.24596 -0.183515,0.51645 -0.08293,0.27415 -0.08518,0.52858 -0.01188,0.25809 0.09474,0.46551 0.09997,0.20444 0.352581,0.31763 0.245964,0.11022 0.507946,0.06 0.252356,-0.0466 0.493232,-0.21005 0.23125,-0.15979 0.4265,-0.39958 0.19525,-0.23979 0.320355,-0.51899 0.169784,-0.37892 0.157359,-0.67185 -0.01907,-0.29591 -0.167866,-0.49828 -0.148793,-0.20238 -0.374813,-0.30365 z"
           style="font-style:normal;font-variant:normal;font-weight:normal;font-stretch:normal;font-size:7.28450298px;font-family:'Dancing Script';-inkscape-font-specification:'Dancing Script';letter-spacing:0.22157031px;stroke-width:0.0379533"
           id="path915" />
      </g>
    </g>
    <path
       style="fill:none;fill-opacity:1;stroke:#000;stroke-width:3.54270911;stroke-linecap:round;stroke-linejoin:miter;stroke-miterlimit:4;stroke-dasharray:none;stroke-opacity:1"
       d="m 40.787258,245.03113 c 0.209232,0.95803 0.442003,1.91237 0.69835,2.86209 0.256353,0.94974 0.53629,1.89486 0.839889,2.83449 0.303599,0.93963 0.630846,1.87375 0.981821,2.80148 0.350969,0.92773 0.725658,1.84906 1.12414,2.76309 0.398476,0.91403 0.820737,1.82078 1.266858,2.71931 0.446113,0.89854 0.916071,1.78889 1.409953,2.67014 0.493883,0.88125 1.011682,1.75341 1.553465,2.61557 0.541774,0.86217 1.107539,1.71435 1.697345,2.55563 0.589813,0.84129 1.203674,1.67169 1.841642,2.49029 0.638004,0.81858 1.300078,1.62541 1.986338,2.41954 0.68626,0.79413 1.388586,1.56617 2.106036,2.3161 0.717444,0.74992 1.45011,1.47765 2.197007,2.18318 0.746903,0.70554 1.508066,1.38886 2.282586,2.0499 0.774521,0.66104 1.562405,1.2998 2.362751,1.91622 0.800346,0.61641 1.613161,1.21047 2.437541,1.78213 0.824381,0.57165 1.660327,1.12091 2.506936,1.64767 0.84661,0.52677 1.703896,1.03107 2.570944,1.51282 0.867047,0.48174 1.743868,0.94095 2.629562,1.37755 0.885687,0.4366 1.780252,0.8506 2.682793,1.24192 0.902535,0.39132 1.813039,0.75996 2.73063,1.10587 0.917577,0.34591 1.842242,0.66908 2.773078,0.96945 0.930836,0.30036 1.867849,0.57793 2.810137,0.83262 0.942289,0.25469 1.88986,0.48652 2.841817,0.69541 0.951943,0.20889 1.908273,0.39484 2.868087,0.5578 0.959806,0.16295 1.923111,0.3029 2.888983,0.41979 0.965878,0.11689 1.934337,0.21072 2.904483,0.2814 0.970152,0.0707 1.941983,0.11826 2.914603,0.14262 0.972621,0.0244 1.946027,0.0255 2.919317,0.003 0.9733,-0.0221 1.94649,-0.0674 2.91866,-0.13613 0.97217,-0.0687 1.94334,-0.1607 2.9126,-0.27611 0.96926,-0.1154 1.9366,-0.2542 2.90115,-0.41646 0.96455,-0.16226 1.92629,-0.34797 2.88433,-0.55721 0.95803,-0.20924 1.91236,-0.442 2.86209,-0.69835 0.94973,-0.25635 1.89486,-0.53629 2.83448,-0.83989 0.93963,-0.3036 1.87376,-0.63085 2.80149,-0.98182 0.92773,-0.35097 1.84906,-0.72566 2.76309,-1.12414 0.91403,-0.39848 1.82077,-0.82074 2.7193,-1.26686 0.89855,-0.44611 1.7889,-0.91607 2.67015,-1.40995 0.88125,-0.49389 1.7534,-1.01169 2.61557,-1.55347 0.86217,-0.54177 1.71434,-1.10754 2.55563,-1.69735 0.84129,-0.5898 1.67168,-1.20366 2.49029,-1.84163 0.81858,-0.63801 1.6254,-1.30008 2.41953,-1.98634 0.79414,-0.68626 1.56618,-1.38859 2.31611,-2.10604 0.74992,-0.71744 1.47765,-1.45011 2.18318,-2.19701 0.70553,-0.7469 1.38886,-1.50805 2.04989,-2.28258 0.66104,-0.77452 1.2998,-1.5624 1.91622,-2.36275 0.61641,-0.80035 1.21048,-1.61316 1.78213,-2.43755 0.57167,-0.82437 1.12091,-1.66032 1.64768,-2.50693 0.52677,-0.84661 1.03106,-1.70389 1.51281,-2.57094 0.48175,-0.86705 0.94096,-1.74387 1.37756,-2.62957 0.4366,-0.88568 0.8506,-1.78025 1.24191,-2.68279 0.39132,-0.90253 0.75997,-1.81304 1.10588,-2.73063 0.34591,-0.91758 0.66908,-1.84224 0.96945,-2.77308 0.30036,-0.93083 0.57793,-1.86784 0.83262,-2.81013 0.25469,-0.94229 0.48651,-1.88987 0.69541,-2.84181 m -1.51911,-31.8088 c -0.3036,-0.93963 -0.63085,-1.87376 -0.98182,-2.80148 -0.35097,-0.92773 -0.72566,-1.84906 -1.12414,-2.76309 -0.39847,-0.91403 -0.82074,-1.82077 -1.26685,-2.71931 -0.44612,-0.89854 -0.91608,-1.78888 -1.40996,-2.67014 -0.49388,-0.88125 -1.01168,-1.75341 -1.55346,-2.61557 -0.54178,-0.86217 -1.10755,-1.71434 -1.69736,-2.55563 -0.58981,-0.84129 -1.20366,-1.67168 -1.84163,-2.49029 -0.63798,-0.81861 -1.30006,-1.62543 -1.98632,-2.41956 -0.68626,-0.79413 -1.38858,-1.56618 -2.10606,-2.31608 -0.71747,-0.7499 -1.45011,-1.47765 -2.19701,-2.18319 -0.7469,-0.70553 -1.50805,-1.38885 -2.28258,-2.04989 -0.77452,-0.66104 -1.5624,-1.2998 -2.36275,-1.91621 -0.80035,-0.61642 -1.61316,-1.21048 -2.43754,-1.78214 -0.82438,-0.57166 -1.66033,-1.12091 -2.50694,-1.64767 -0.84661,-0.52678 -1.70389,-1.03107 -2.57094,-1.51281 -0.86705,-0.48176 -1.74387,-0.94096 -2.62957,-1.37757 -0.88569,-0.4366 -1.78025,-0.85059 -2.68278,-1.24191 -0.90254,-0.39132 -1.81305,-0.75997 -2.73063,-1.10588 -0.91759,-0.34591 -1.84225,-0.66907 -2.77308,-0.96944 -0.93084,-0.30037 -1.86785,-0.57793 -2.81014,-0.83262 -0.9423,-0.2547 -1.88987,-0.48652 -2.84181,-0.69541 -0.95195,-0.20889 -1.90829,-0.39485 -2.86809,-0.5578 -0.95982,-0.16295 -1.92311,-0.30291 -2.88899,-0.4198 -0.96588,-0.11689 -1.93434,-0.2107 -2.90448,-0.2814 -0.97015,-0.0707 -1.94198,-0.11825 -2.9146,-0.14261 -0.97262,-0.0244 -1.946032,-0.0255 -2.919327,-0.003 -0.973296,0.0221 -1.946482,0.0675 -2.918653,0.13614 -0.972177,0.0687 -1.943346,0.16069 -2.912605,0.2761 -0.969258,0.11541 -1.936607,0.25421 -2.901153,0.41646 -0.964546,0.16226 -1.926289,0.34797 -2.884321,0.55721 -0.95804,0.20924 -1.912368,0.44201 -2.8621,0.69836 -0.949731,0.25635 -1.894859,0.53629 -2.834483,0.83989 -0.93963,0.30359 -1.873756,0.63084 -2.801484,0.98181 -0.927728,0.35098 -1.849058,0.72567 -2.76309,1.12414 -0.914031,0.39848 -1.820764,0.82075 -2.719306,1.26686 -0.898541,0.44611 -1.78889,0.91607 -2.67014,1.40996 -0.881251,0.49388 -1.753409,1.01168 -2.615574,1.55346 -0.862172,0.54178 -1.714345,1.10754 -2.555631,1.69735 -0.841286,0.58981 -1.671679,1.20367 -2.490286,1.84164 -0.81858,0.638 -1.625407,1.30007 -2.419539,1.98634 -0.794133,0.68626 -1.566174,1.38859 -2.316101,2.10603 -0.749926,0.71745 -1.477652,1.45011 -2.183186,2.19701 -0.705534,0.7469 -1.388857,1.50806 -2.049891,2.28259 -0.661042,0.77452 -1.299802,1.5624 -1.916218,2.36275 -0.616415,0.80034 -1.210479,1.61316 -1.782137,2.43754 -0.571656,0.82438 -1.1209,1.66032 -1.647675,2.50694 -0.526767,0.84661 -1.031057,1.70389 -1.512812,2.57094 -0.481747,0.86705 -0.940959,1.74387 -1.377556,2.62956 -0.436603,0.88569 -0.850599,1.78025 -1.241914,2.68279"
       id="path845"
       inkscape:connector-curvature="0"
       sodipodi:nodetypes="cssssssssssssssssssssssssssssssssssssssssssssssssssssssccssssssssssssssssssssssssssssssssssssssssssssssssc" />
  </g>
</svg>
